<?xml version="1.0"?>
<svg version="1.1" viewBox="0.0 0.0 960.0 960.0" fill="none" stroke="none" stroke-linecap="square" stroke-miterlimit="10" xmlns:xlink="http://www.w3.org/1999/xlink" xmlns="http://www.w3.org/2000/svg" width="960.0" height="960.0"><clipPath id="p.0"><path d="m0 0l960.0 0l0 960.0l-960.0 0l0 -960.0z" clip-rule="nonzero"></path></clipPath><g clip-path="url(#p.0)"><path fill="#000000" fill-opacity="0.0" d="m0 0l960.0 0l0 960.0l-960.0 0z" fill-rule="evenodd"></path><path fill="#f1f3f2" d="m605.0839 -0.020175591l-605.0824 383.61667l3.2412 5.4732666l605.0824 -383.61667l-3.24115 -5.473255z" fill-rule="evenodd"></path><path fill="#f1f3f2" d="m640.175 56.934265l-605.08966 383.61667l3.5112991 5.4732666l605.0824 -383.61667l-3.5040283 -5.473255z" fill-rule="evenodd"></path><path fill="#f1f3f2" d="m675.2588 114.16274l-604.8196 383.61667l3.2412033 5.473236l605.0824 -383.61667l-3.5040283 -5.4732513z" fill-rule="evenodd"></path><path fill="#f1f3f2" d="m710.61273 171.11719l-605.0824 383.61664l3.233902 5.4732666l605.08966 -383.61664l-3.24115 -5.4732513z" fill-rule="evenodd"></path><path fill="#f1f3f2" d="m745.69653 228.34566l-605.0824 383.6167l3.5039978 5.4732666l604.8196 -383.6167l-3.24115 -5.4732513z" fill-rule="evenodd"></path><path fill="#f1f3f2" d="m780.7803 285.5667l-604.81226 383.34265l3.2411957 5.480652l605.0824 -383.61667l-3.5113525 -5.2066345z" fill-rule="evenodd"></path><path fill="#f1f3f2" d="m816.1342 342.52115l-605.0824 383.61667l3.2411957 5.480652l605.0824 -383.61664l-3.241211 -5.4806824z" fill-rule="evenodd"></path><path fill="#f1f3f2" d="m851.2253 399.74963l-605.08966 383.34265l3.5112915 5.480652l604.8123 -383.61667l-3.2339478 -5.2066345z" fill-rule="evenodd"></path><path fill="#f1f3f2" d="m886.3091 456.70407l-605.0824 383.61667l3.5039978 5.480652l605.0824 -383.61664l-3.5040283 -5.4806824z" fill-rule="evenodd"></path><path fill="#f1f3f2" d="m921.663 513.93256l-605.0824 383.34265l3.2339172 5.4732666l605.08966 -383.34265l-3.24115 -5.4732666z" fill-rule="evenodd"></path><path fill="#f1f3f2" d="m956.7468 570.88696l-605.0824 383.6167l3.241211 5.4732666l605.0824 -383.6167l-3.24115 -5.4732666z" fill-rule="evenodd"></path><path fill="#f1f3f2" d="m436.14 305.55634l-178.66751 113.08676l0 7.6655273l190.5373 -120.75229z" fill-rule="evenodd"></path><path fill="#f1f3f2" d="m310.9085 305.55634l-53.436005 33.683838l0 7.6655273l65.31311 -41.349365z" fill-rule="evenodd"></path><path fill="#f1f3f2" d="m686.5957 305.55634l-212.40079 134.72058l11.8697815 0l212.40082 -134.72058z" fill-rule="evenodd"></path><path fill="#f1f3f2" d="m561.3642 305.55634l-212.40079 134.72058l11.877106 0l212.40082 -134.72058z" fill-rule="evenodd"></path><path fill="#f1f3f2" d="m705.4808 372.91663l-106.061646 67.36029l11.877075 0l94.18457 -59.694794l0 -7.665497z" fill-rule="evenodd"></path><path fill="#f1f3f2" d="m705.4808 611.14026l-102.28027 64.89398l12.139893 0l90.14038 -57.502502l0 -7.3914795z" fill-rule="evenodd"></path><path fill="#f1f3f2" d="m690.3698 541.31366l-212.40082 134.72058l12.147217 0l212.40082 -134.72058z" fill-rule="evenodd"></path><path fill="#f1f3f2" d="m565.1456 541.31366l-212.40082 134.72058l12.139893 0l212.40082 -134.72058z" fill-rule="evenodd"></path><path fill="#f1f3f2" d="m439.9141 541.31366l-182.44159 115.55304l0 7.6655273l194.5888 -123.21857z" fill-rule="evenodd"></path><path fill="#f1f3f2" d="m314.6899 541.31366l-57.217407 36.1427l0 7.6655273l69.36459 -43.808228z" fill-rule="evenodd"></path></g></svg>